<svg width="41" height="33" viewBox="0 0 41 33" fill="none" xmlns="http://www.w3.org/2000/svg">
<path d="M4.1 33C2.9725 33 2.00763 32.5964 1.2054 31.7893C0.403167 30.9822 0.00136667 30.0107 0 28.875V4.125C0 2.99062 0.4018 2.01987 1.2054 1.21275C2.009 0.405625 2.97387 0.001375 4.1 0H36.9C38.0275 0 38.993 0.40425 39.7966 1.21275C40.6002 2.02125 41.0014 2.992 41 4.125V28.875C41 30.0094 40.5989 30.9808 39.7966 31.7893C38.9944 32.5978 38.0289 33.0014 36.9 33H4.1ZM20.5 18.5625L36.9 8.25V4.125L20.5 14.4375L4.1 4.125V8.25L20.5 18.5625Z" fill="white"/>
</svg>
